<?xml version="1.0" encoding="UTF-8" standalone="no"?>
<svg
   xmlns="http://www.w3.org/2000/svg"
   width="200mm"
   height="130mm"
   viewBox="0 0 200 130"
   version="1.1"
   id="svg8">
  <defs
     id="defs2">
    <rect
       x="44.676785"
       y="103.27914"
       width="148.84702"
       height="26.366692"
       id="rect54" />
  </defs>
  <g
     id="layer1">
    <text
       xml:space="preserve"
       id="text52"
       style="font-size:10.5833px;line-height:1.25;font-family:Roboto;-inkscape-font-specification:Roboto;white-space:pre;shape-inside:url(#rect54);" />
    <text
       xml:space="preserve"
       style="font-size:22.5132px;line-height:1.25;font-family:Roboto;-inkscape-font-specification:Roboto;stroke-width:0.422123"
       x="2.4119754"
       y="121.54822"
       id="text60"><tspan
         id="tspan58"
         x="2.4119754"
         y="121.54822"
         style="font-size:22.5132px;stroke-width:0.422123"
         rotate="0 0"><tspan
           style="fill:#37c837;stroke-width:0.422123"
           id="tspan62">`</tspan><tspan
           style="fill:#cccccc;stroke-width:0.422123"
           id="tspan64">$</tspan><tspan
           style="fill:#80e5ff;stroke-width:0.422123"
           id="tspan66">{</tspan><tspan
           style="fill:#ececec;stroke-width:0.422123"
           id="tspan70">github_explorer</tspan><tspan
           style="fill:#80e5ff;fill-opacity:1;stroke-width:0.422123"
           id="tspan899">}</tspan><tspan
           style="fill:#37c837;fill-opacity:1;stroke-width:0.422123"
           id="tspan901">`</tspan></tspan></text>
    <g
       id="g1010"
       transform="matrix(0.18352187,0,0,0.18352187,54.53582,5.5970037)">
      <path
         d="M 238.9375,480.00391 H 15.039062 C 8.941406,480.00391 4,475.05859 4,468.96484 V 207.67578 c 0,-6.09766 4.941406,-11.03906 11.039062,-11.03906 H 238.9375 Z m 0,0"
         fill="#4671c6"
         id="path903" />
      <path
         d="M 462.96094,480.00391 H 239.0625 V 196.63672 h 223.89844 c 6.09765,0 11.03906,4.9414 11.03906,11.03906 v 261.28906 c 0,6.09375 -4.94141,11.03907 -11.03906,11.03907 z m 0,0"
         fill="#4671c6"
         id="path905" />
      <path
         d="M 238.9375,484 H 15.039062 C 6.746094,484 0,477.25391 0,468.96094 V 207.67187 c 0,-8.29296 6.746094,-15.03906 15.039062,-15.03906 H 238.9375 c 2.20703,0 4,1.79297 4,4 V 480 c 0,2.21094 -1.79297,4 -4,4 z M 15.039062,200.63281 C 11.15625,200.63281 8,203.79297 8,207.67187 V 468.96094 C 8,472.84375 11.15625,476 15.039062,476 H 234.9375 V 200.63281 Z m 0,0"
         fill="#3762cc"
         id="path907" />
      <path
         d="M 462.96094,484 H 239.0625 c -2.20703,0 -4,-1.79297 -4,-4 V 196.63281 c 0,-2.20703 1.79297,-4 4,-4 h 223.89844 c 8.29297,0 15.03906,6.7461 15.03906,15.03906 V 468.96094 C 478,477.25391 471.25391,484 462.96094,484 Z M 243.0625,476 H 462.96094 C 466.84375,476 470,472.84375 470,468.96094 V 207.67187 c 0,-3.8789 -3.15625,-7.03906 -7.03906,-7.03906 H 243.0625 Z m 0,0"
         fill="#3762cc"
         id="path909" />
      <path
         d="m 27.9375,438.46875 c 0,0 216.30469,-85.37109 211.10156,21.75 H 27.9375 Z m 0,0"
         fill="#e0ebfc"
         id="path911" />
      <path
         d="m 238.87109,214.74609 v -3.17578 h -0.39453 C 225.91016,124.51563 27.933594,202.64062 27.933594,202.64062 v 235.82032 c 0,0 202.761716,-80.02344 210.937496,12.10547 V 224.38672 h 0.16407 c 0.16796,-3.40625 0.10546,-6.61328 -0.16407,-9.64063 z m 0,0"
         fill="#e0ebfc"
         id="path913" />
      <path
         d="m 450.32422,438.46875 v 21.75 H 239.22266 c -5.20313,-107.12109 211.10156,-21.75 211.10156,-21.75 z m 0,0"
         fill="#e0ebfc"
         id="path915" />
      <path
         d="m 239.38672,214.74609 v -3.17578 h 0.39453 c 12.56641,-87.05468 210.54297,-8.92969 210.54297,-8.92969 v 235.82032 c 0,0 -202.76172,-80.02344 -210.9375,12.10547 V 224.38672 h -0.16406 c -0.16797,-3.40625 -0.10157,-6.61328 0.16406,-9.64063 z m 0,0"
         fill="#e0ebfc"
         id="path917" />
      <g
         fill="#b9befc"
         id="g935">
        <path
           d="m 57.574219,256.04297 c -2.917969,0 -5.640625,-1.80859 -6.648438,-4.6875 -1.273437,-3.63672 0.675781,-7.60547 4.347657,-8.86328 51.312502,-17.57813 120.816402,-34.4961 160.570312,-15.28906 3.49219,1.6875 4.94141,5.85937 3.23437,9.3164 -1.69921,3.45703 -5.91406,4.89063 -9.40625,3.20703 -37.28125,-18.01562 -109.855464,2.25 -149.79687,15.9336 -0.761719,0.26172 -1.535156,0.38281 -2.300781,0.38281 z m 0,0"
           id="path919" />
        <path
           d="m 57.574219,297.72266 c -2.917969,0 -5.640625,-1.8086 -6.648438,-4.69141 -1.273437,-3.63672 0.675781,-7.60156 4.347657,-8.85938 51.312502,-17.57421 120.816402,-34.49609 160.570312,-15.28906 3.49219,1.6875 4.94141,5.85547 3.23437,9.31641 -1.69921,3.45312 -5.91406,4.89062 -9.40625,3.20312 -37.28125,-18.01172 -109.855464,2.25391 -149.79687,15.9375 -0.761719,0.25782 -1.535156,0.38282 -2.300781,0.38282 z m 0,0"
           id="path921" />
        <path
           d="m 57.574219,339.40234 c -2.917969,0 -5.640625,-1.80859 -6.648438,-4.6914 -1.273437,-3.63672 0.675781,-7.60156 4.347657,-8.85938 51.312502,-17.57812 120.816402,-34.49609 160.570312,-15.29297 3.49219,1.6875 4.94141,5.85938 3.23437,9.31641 -1.69921,3.45703 -5.91406,4.89453 -9.40625,3.20703 -37.28125,-18.01562 -109.855464,2.25391 -149.79687,15.9375 -0.761719,0.25781 -1.535156,0.38281 -2.300781,0.38281 z m 0,0"
           id="path923" />
        <path
           d="m 57.574219,381.08203 c -2.917969,0 -5.640625,-1.80859 -6.648438,-4.69141 -1.273437,-3.63281 0.675781,-7.60156 4.347657,-8.85937 51.312502,-17.57813 120.816402,-34.49609 160.570312,-15.28906 3.49219,1.6875 4.94141,5.85937 3.23437,9.3164 -1.69921,3.45703 -5.91406,4.89063 -9.40625,3.20703 -37.28125,-18.01562 -109.855464,2.25 -149.79687,15.9336 -0.761719,0.25781 -1.535156,0.38281 -2.300781,0.38281 z m 0,0"
           id="path925" />
        <path
           d="m 421.02344,256.04297 c -0.76172,0 -1.54297,-0.12109 -2.30078,-0.38672 -39.94532,-13.67969 -112.51954,-33.94531 -149.79688,-15.93359 -3.49609,1.68359 -7.70703,0.25 -9.41016,-3.20703 -1.70312,-3.45704 -0.2539,-7.62891 3.23829,-9.31641 39.7539,-19.20703 109.26171,-2.28516 160.5664,15.28906 3.67188,1.25781 5.6211,5.22656 4.35156,8.86328 -1.00781,2.88282 -3.73437,4.69141 -6.64843,4.69141 z m 0,0"
           id="path927" />
        <path
           d="m 421.02344,297.72266 c -0.76172,0 -1.54297,-0.125 -2.30078,-0.38672 -39.94532,-13.6836 -112.51954,-33.94922 -149.79688,-15.9375 -3.49609,1.6914 -7.70703,0.2539 -9.41016,-3.20313 -1.70312,-3.46094 -0.2539,-7.6289 3.23829,-9.3164 39.7539,-19.20703 109.26171,-2.28516 160.5664,15.28906 3.67188,1.25781 5.6211,5.22656 4.35156,8.85937 -1.00781,2.88672 -3.73437,4.69532 -6.64843,4.69532 z m 0,0"
           id="path929" />
        <path
           d="m 421.02344,339.40234 c -0.76172,0 -1.54297,-0.125 -2.30078,-0.38672 -39.94141,-13.68359 -112.51563,-33.94921 -149.79688,-15.9375 -3.49609,1.6875 -7.70703,0.25391 -9.41016,-3.20312 -1.70312,-3.46094 -0.2539,-7.62891 3.23829,-9.31641 39.75,-19.20703 109.25781,-2.28906 160.5664,15.29297 3.67188,1.25781 5.6211,5.22266 4.35156,8.85938 -1.00781,2.88281 -3.73437,4.6914 -6.64843,4.6914 z m 0,0"
           id="path931" />
        <path
           d="m 421.02344,381.08203 c -0.76172,0 -1.54297,-0.125 -2.30078,-0.38672 -39.94532,-13.67969 -112.51954,-33.94922 -149.79688,-15.93359 -3.49609,1.6875 -7.70703,0.25 -9.41016,-3.20703 -1.70312,-3.45703 -0.2539,-7.62891 3.23829,-9.31641 39.7539,-19.20703 109.26171,-2.28516 160.5664,15.28906 3.67188,1.25782 5.6211,5.22657 4.35156,8.85938 -1.00781,2.88672 -3.73437,4.69531 -6.64843,4.69531 z m 0,0"
           id="path933" />
      </g>
      <path
         d="M 239.03906,464.21875 H 27.9375 c -2.210938,0 -4,-1.78906 -4,-4 v -21.75 c 0,-1.64063 1.003906,-3.11719 2.53125,-3.71875 5.914062,-2.33594 145.46484,-56.74609 197.375,-19.55078 13.71094,9.82812 20.17187,25.03906 19.19141,45.21484 -0.10547,2.12891 -1.86329,3.80469 -3.9961,3.80469 z m -207.10156,-8 h 203.19531 c -0.0391,-15.55469 -5.27734,-26.87109 -15.95312,-34.51953 C 174.37891,389.60547 51.183594,433.98437 31.9375,441.22266 Z m 0,0"
         fill="#3762cc"
         id="path937" />
      <path
         d="m 238.87109,454.56641 c -2.0625,0 -3.80078,-1.57422 -3.98437,-3.64454 -1.23828,-13.98437 -7.17969,-24.07812 -18.16016,-30.85937 -50.60937,-31.24609 -185.957029,21.58203 -187.32031,22.12109 -1.226562,0.48828 -2.621094,0.33203 -3.71875,-0.41406 -1.09375,-0.74609 -1.75,-1.98437 -1.75,-3.30859 V 202.63672 c 0,-1.64063 1.003906,-3.11719 2.53125,-3.71875 5.628906,-2.21875 138.40625,-54.00391 193.17578,-22.22266 12.44141,7.21875 20.01172,18.1836 22.52734,32.60938 0.44532,0.64453 0.70313,1.42187 0.70313,2.26562 v 3 c 0.27734,3.20313 0.32812,6.57031 0.16406,10.00781 -0.0195,0.33204 -0.0742,0.64844 -0.16406,0.95313 v 225.03516 c 0,2.14062 -1.68359,3.90234 -3.82031,3.99609 -0.0664,0.004 -0.125,0.004 -0.1836,0.004 z M 31.9375,205.39062 v 227.26563 c 26.65625,-9.91797 140.46094,-49.36719 188.99219,-19.39844 5.75781,3.55469 10.41406,7.95703 13.9414,13.16797 V 224.38672 c 0,-0.45703 0.0781,-0.89453 0.21875,-1.30078 0.0898,-2.75 0.0234,-5.4336 -0.20312,-7.98828 -0.0117,-0.11719 -0.0156,-0.23438 -0.0156,-0.35157 v -1.44531 c -0.17187,-0.35937 -0.29297,-0.75 -0.35156,-1.16015 -1.86328,-12.89844 -8.04297,-22.23047 -18.89453,-28.52735 -47.51563,-27.57031 -164.9375,14.72656 -183.6875,21.77734 z m 207.10156,18.9961 h 0.0195 z m 0,0"
         fill="#3762cc"
         id="path939" />
      <path
         d="M 450.32422,464.21875 H 239.22266 c -2.13282,0 -3.89453,-1.67188 -3.9961,-3.80469 -0.98047,-20.17578 5.47657,-35.39062 19.19532,-45.21484 51.91796,-37.19531 191.45703,17.21484 197.37109,19.55078 1.52734,0.60156 2.53125,2.07812 2.53125,3.71875 v 21.75 c 0,2.21094 -1.78906,4 -4,4 z m -207.19531,-8 h 203.19531 v -14.99609 c -19.25,-7.23828 -142.46485,-51.60938 -187.2461,-19.51954 -10.67187,7.64844 -15.91015,18.96094 -15.94921,34.51563 z m 0,0"
         fill="#3762cc"
         id="path941" />
      <path
         d="m 239.39062,454.56641 c -0.0586,0 -0.12109,0 -0.17968,-0.004 -2.13672,-0.0937 -3.82422,-1.85547 -3.82422,-3.99609 V 225.49609 c -0.0898,-0.29297 -0.14453,-0.59765 -0.16016,-0.91797 -0.16797,-3.4375 -0.11328,-6.80468 0.16016,-10.00781 v -3 c 0,-0.83984 0.26172,-1.62109 0.70703,-2.26562 2.51172,-14.42578 10.08594,-25.39063 22.52344,-32.60938 54.76953,-31.78906 187.54687,20 193.17578,22.21875 1.52734,0.60547 2.53125,2.07813 2.53125,3.72266 v 235.82422 c 0,1.32422 -0.65235,2.5625 -1.75,3.30468 -1.09375,0.7461 -2.48438,0.90235 -3.71485,0.41407 -1.36328,-0.53907 -136.75,-53.35157 -187.32421,-22.11719 -10.97657,6.78516 -16.91797,16.875 -18.16016,30.85937 -0.18359,2.07032 -1.92188,3.64454 -3.98438,3.64454 z m 67.75,-52.35157 c 53.17579,0 119.625,23.16407 139.1836,30.4375 V 205.39062 c -18.7461,-7.04296 -136.19141,-49.33984 -183.69531,-21.77343 -10.84766,6.29297 -17.02735,15.625 -18.89063,28.52343 -0.0547,0.41407 -0.17969,0.80079 -0.35156,1.16016 v 1.44531 c 0,0.11719 -0.004,0.23438 -0.0156,0.35157 -0.22656,2.57421 -0.29297,5.27343 -0.19922,8.04296 0.13672,0.39454 0.21485,0.8125 0.21485,1.2461 v 202.03906 c 3.52734,-5.21094 8.18359,-9.61328 13.9414,-13.16797 12.9336,-7.98437 30.5,-11.04297 49.8125,-11.04297 z m -67.7539,-187.46875 h 0.0195 z m 0,0"
         fill="#3762cc"
         id="path943" />
      <path
         d="m 399,163.99609 c 0,88.36719 -71.63281,160 -160,160 -88.36719,0 -160,-71.63281 -160,-160 C 79,75.632812 150.63281,3.996094 239,3.996094 c 88.36719,0 160,71.636718 160,159.999996 z m 0,0"
         fill="#e0ebfc"
         id="path945" />
      <path
         d="m 263.23828,89.175781 -7.28906,8.28125 c -1.08594,1.234375 -1.6875,2.828129 -1.6875,4.472659 V 119 c 0,0.90625 0.18359,1.80469 0.53515,2.64063 l 2.15235,5.08593 c 1.52344,3.60156 5.76953,5.16797 9.26953,3.42188 l 10.74219,-5.3711 c 3.24218,-1.62109 4.63672,-5.51171 3.15234,-8.82421 l -5.125,-11.44922 c -0.47266,-1.06641 -0.66797,-2.23828 -0.55859,-3.39844 l 0.64062,-6.82422 c 0.3711,-3.972656 -2.7539,-7.40625 -6.74609,-7.40625 -1.94922,0 -3.80078,0.839844 -5.08594,2.300781 z m 0,0"
         fill="#6bdddd"
         id="path947" />
      <path
         d="m 348.82422,51.410156 -25.90235,6.074219 c -1.08203,0.253906 -2.0664,0.820313 -2.83203,1.632813 l -6.75,7.148437 c -0.38281,0.40625 -0.70312,0.863281 -0.95312,1.359375 l -3.82031,7.644531 c -0.52344,1.042969 -1.35547,1.90625 -2.38672,2.457031 l -0.008,0.0078 c -2.72657,1.46875 -3.77735,4.84375 -2.35938,7.597656 l 3.53125,6.863281 c 1.55469,3.023438 5.39844,4.011719 8.21875,2.113282 l 7.00391,-4.714844 c 2.32812,-1.5625 5.44531,-1.199219 7.34375,0.859375 l 3.92578,4.25 c 1.72656,1.871094 1.99609,4.671875 0.65234,6.839848 l -9.05859,14.64062 c -1.03906,1.67188 -2.86328,2.69141 -4.83203,2.69141 H 302.4295 c -2.23047,0 -4.25781,1.30859 -5.17578,3.33984 l -4.98828,11.04688 c -0.33204,0.73047 -0.50391,1.53125 -0.50391,2.33594 v 3.70703 c 0,1.33593 0.47266,2.63281 1.33203,3.65234 l 15.50391,18.46094 c 1.33593,1.58984 3.42968,2.32422 5.46484,1.91797 l 23.22266,-4.66407 c 0.96875,-0.19531 1.86718,-0.64062 2.61328,-1.28906 l 11.32422,-9.87109 c 0.48437,-0.42188 1.03515,-0.75781 1.63281,-0.9961 l 7.17187,-2.85546 c 1.98438,-0.78907 4.24219,-0.39844 5.84766,1.01171 l 11.95312,10.50391 c 1.23047,1.07813 1.9336,2.63281 1.9336,4.26563 v 11.48437 c 0,2.11719 -1.1836,4.05859 -3.0625,5.03906 l -21.10938,10.97657 c -0.55078,0.28515 -1.14453,0.48046 -1.7539,0.57421 l -31.14453,4.78907 c -0.28907,0.0469 -0.57422,0.0664 -0.86719,0.0664 H 307.117 c -2.07031,0 -3.97656,1.12891 -4.97656,2.94141 l -3.87891,7.05859 -5.97656,11.48828 c -0.34766,0.66797 -0.82422,1.26172 -1.40235,1.7461 l -5.3789,4.48437 c -1.67969,1.39453 -2.41016,3.6211 -1.875,5.74219 0.92578,3.66797 2.30468,9.07031 2.6289,10.04297 0.35157,1.05859 2.6836,6.56641 4.03516,9.74219 0.61719,1.44531 1.80469,2.5625 3.28125,3.10156 l 11.25391,4.09375 c 1.82421,0.66406 3.18359,2.21094 3.60546,4.10547 l 1.10547,4.96875 c 0.14453,0.65625 0.17188,1.32812 0.082,1.99219 l -2.29687,16.99218 c -0.043,0.33594 -0.0586,0.67188 -0.043,1.01172 l 0.76563,17.41406 c 0.18359,4.25 4.77734,6.75 8.49218,4.6836 C 365.71875,276.68359 399,224.23047 399,163.99609 399,120.875 381.9375,81.738281 354.19531,52.964844 c -1.38281,-1.429688 -3.42968,-2.007813 -5.37109,-1.554688 z m 0,0"
         fill="#6bdddd"
         id="path949" />
      <path
         d="m 203.45312,320.03125 -3.12109,-9.36719 -6.66797,-8.58594 -8.73437,-9.36718 c -1.28907,-1.38282 -2.00391,-3.20313 -2.00391,-5.09375 v -8.46485 c 0,-3.42187 -2.32812,-6.40625 -5.64844,-7.24218 l -6.71484,-1.6875 c -0.59375,-0.14844 -1.20313,-0.22657 -1.82031,-0.22657 h -10.64844 c -1.98047,0 -3.87891,-0.78515 -5.28125,-2.18359 l -6.1875,-6.1875 c -1.05859,-1.05859 -1.77344,-2.41406 -2.05469,-3.88281 l -1.70703,-8.97266 c -0.33984,-1.78516 -1.32031,-3.38672 -2.75781,-4.5 l -3.54297,-2.75 c -2.83984,-2.20312 -6.84375,-2.07031 -9.53125,0.3125 l -0.008,0.008 c -2.71094,2.40235 -6.75781,2.51563 -9.59766,0.26172 l -5.125,-4.07031 c -0.85547,-0.67969 -1.55469,-1.54297 -2.03906,-2.51953 L 104.9334,224.8205 c -1.19531,-2.39844 -1.01171,-5.25781 0.48047,-7.48437 l 4.8711,-7.27344 c 0.89843,-1.33984 2.20312,-2.35547 3.73047,-2.88672 l 6.20312,-2.17969 c 1.78906,-0.6289 3.26953,-1.91406 4.14844,-3.59375 l 6.633,-12.73847 7.05469,-10.8164 c 1.03515,-1.58594 1.42968,-3.50391 1.10156,-5.3711 L 137.66406,164 135.96484,150.32031 c -0.23828,-1.91797 0.27735,-3.85156 1.4375,-5.39844 l 4.76172,-6.35546 c 2.02344,-2.69532 5.60156,-3.70313 8.73047,-2.46094 l 3.44531,1.36719 c 0.875,0.34765 1.8125,0.52734 2.75391,0.52734 h 13.91016 c 2.49609,0 4.82812,-1.24609 6.21093,-3.32422 l 8.53125,-12.79297 C 186.5625,120.65625 187,119.21484 187,117.73828 v -15.54297 c 0,-1.84375 -0.67969,-3.621091 -1.91016,-4.992185 L 173.40625,84.199219 c -0.75781,-0.84375 -1.69531,-1.5 -2.74219,-1.925781 l -12.02344,-4.890626 c -5.02343,-2.042968 -8.30859,-6.925781 -8.30859,-12.351562 v -8.035156 c 0,-2.308594 -1.06641,-4.488282 -2.89453,-5.902344 l -6.95703,-5.390625 C 137.61328,43.480469 133.55078,43.625 130.875,46.078125 98.992188,75.320312 79,117.32031 79,163.99609 c 0,76.14844 53.19922,139.86719 124.45312,156.03516 z m 0,0"
         fill="#6bdddd"
         id="path951" />
      <path
         d="m 137.66406,208.91797 19.27735,4.05078 c 1.33203,0.28125 2.53125,1.00391 3.40234,2.05078 l 4.42187,5.32422 c 1.00782,1.20703 2.44141,1.97656 4.00782,2.14453 l 12.1914,1.29688 c 1.27344,0.13671 2.47266,0.67187 3.41797,1.53125 l 7.96875,7.22265 c 1.26172,1.14453 1.98438,2.76953 1.98438,4.47656 v 0.004 c 0,3.67969 -3.26953,6.50391 -6.91016,5.97656 l -19.77344,-2.875 c -1.08203,-0.15625 -2.09765,-0.60156 -2.94531,-1.29297 l -10.36328,-8.44531 c -0.875,-0.71094 -1.53516,-1.66015 -1.89844,-2.73047 l -1.3789,-4.03515 c -0.83594,-2.44141 -3.13282,-4.08594 -5.71485,-4.08594 H 140.375 c -3.33594,0 -6.03906,-2.70703 -6.03906,-6.04297 v -4.56641 h 3.32812 z m 0,0"
         fill="#6bdddd"
         id="path953" />
      <path
         d="M 239,328 C 148.57031,328 75,254.42969 75,164 75,73.570312 148.57031,0 239,0 c 90.42969,0 164,73.570312 164,164 0,90.42969 -73.57031,164 -164,164 z M 239,8 C 152.98047,8 83,77.980469 83,164 c 0,86.01953 69.98047,156 156,156 86.01953,0 156,-69.98047 156,-156 C 395,77.980469 325.01953,8 239,8 Z m 0,0"
         fill="#3762cc"
         id="path955" />
      <path
         d="m 465.69531,372.5 c -7.55469,7.55469 -19.80469,7.55469 -27.35937,0 l -64.38282,-64.38281 c -2.41796,-2.41797 -2.41796,-6.33594 0,-8.75391 l 18.60547,-18.60156 c 2.41797,-2.41797 6.33594,-2.41797 8.75391,0 l 64.38281,64.3789 c 7.55078,7.55469 7.55078,19.80469 0,27.35938 z m 0,0"
         fill="#a4c9ff"
         id="path957" />
      <path
         d="m 392.35156,280.96875 -20.67969,-20.67969 c -2.60546,3.35938 -5.41406,6.60938 -8.49609,9.69141 -3.08203,3.08203 -6.33203,5.89453 -9.69531,8.49609 l 20.67969,20.67969 z m 0,0"
         fill="#ffea92"
         id="path959" />
      <path
         d="M 362.85156,125.80859 C 323.01562,85.972656 258.33984,85.828125 218.67969,125.48828 c -39.66016,39.66016 -39.51563,104.33203 0.32422,144.17188 39.83593,39.83593 104.51171,39.98046 144.16796,0.32031 39.66016,-39.66016 39.51563,-104.33594 -0.32031,-144.17188 z m -19.61719,124.23438 c -13.88671,13.88672 -32.41406,21.50781 -52.16796,21.46094 -19.74219,-0.0508 -38.28516,-7.75 -52.22266,-21.6875 C 210,220.97656 209.89844,174.14453 238.61719,145.42578 c 13.88672,-13.88672 32.41406,-21.50781 52.17187,-21.46094 19.73828,0.0508 38.28516,7.75 52.22266,21.6875 13.9375,13.9375 21.64062,32.48829 21.68359,52.23438 0.043,19.75 -7.57812,38.26953 -21.46094,52.15625 z m 0,0"
         fill="#f9a7a7"
         id="path961" />
      <path
         d="m 452.01562,382.15625 c -5.97656,0 -11.95703,-2.27734 -16.50781,-6.82813 L 371.125,310.94531 c -3.97266,-3.97265 -3.97266,-10.4375 0,-14.41015 l 18.60547,-18.60157 c 1.92187,-1.92578 4.48437,-2.98828 7.20703,-2.98828 2.71875,0 5.28125,1.0625 7.20703,2.98828 l 64.37891,64.37891 c 9.10547,9.10156 9.10547,23.91406 0,33.01172 -4.55469,4.55469 -10.53125,6.83203 -16.50782,6.83203 z m -55.08203,-99.20703 c -0.55859,0 -1.12109,0.21094 -1.54687,0.64062 l -18.60547,18.60157 c -0.85156,0.85546 -0.85156,2.24609 0,3.09765 l 64.38281,64.38281 c 5.98438,5.98047 15.71485,5.98438 21.70313,0 5.98047,-5.98437 5.98047,-15.71875 0,-21.70312 l -64.38282,-64.37891 c -0.42968,-0.42968 -0.98828,-0.64062 -1.55078,-0.64062 z m 0,0"
         fill="#3762cc"
         id="path963" />
      <path
         d="m 374.16016,303.15625 c -1.0586,0 -2.07422,-0.42188 -2.82422,-1.17188 l -20.6836,-20.67968 c -0.80859,-0.8125 -1.23437,-1.9336 -1.16406,-3.08203 0.0742,-1.14844 0.63672,-2.20704 1.54297,-2.91016 3.42969,-2.65625 6.47656,-5.32422 9.3125,-8.16406 2.84375,-2.83985 5.51172,-5.88672 8.16016,-9.3086 0.70312,-0.91015 1.76562,-1.47265 2.91015,-1.54687 1.16797,-0.0664 2.26953,0.35156 3.08203,1.16406 l 20.67969,20.67969 c 1.5625,1.5625 1.5625,4.09375 0,5.65625 l -18.1875,18.1875 c -0.75,0.7539 -1.76562,1.17578 -2.82812,1.17578 z m -14.70313,-24.36328 14.70313,14.70312 12.53515,-12.52734 -14.70703,-14.70703 c -1.94922,2.3164 -3.95312,4.51172 -5.98437,6.54297 -2.03516,2.03515 -4.22266,4.03906 -6.54688,5.98828 z m 0,0"
         fill="#3762cc"
         id="path965" />
      <path
         d="m 291.38281,303.62891 c -27.20703,0 -54.44922,-10.38282 -75.20703,-31.14454 -41.39844,-41.39453 -41.54297,-108.60546 -0.32422,-149.82812 41.21875,-41.214844 108.4336,-41.070312 149.82813,0.32422 41.39453,41.39844 41.54297,108.60937 0.32422,149.82812 -20.55079,20.54688 -47.56641,30.82032 -74.6211,30.82032 z M 290.46875,99.835938 c -25.00781,0 -49.96875,9.484372 -68.96094,28.476562 -38.09765,38.10156 -37.95312,100.23828 0.32031,138.51562 19.19922,19.19532 44.39844,28.80079 69.55469,28.80469 25.00781,0 49.96875,-9.48828 68.96094,-28.48047 38.09766,-38.10156 37.95312,-100.23828 -0.32031,-138.51562 C 340.82422,109.44141 315.625,99.835938 290.46875,99.835938 Z M 291.25391,275.5 c -0.0664,0 -0.13282,0 -0.19922,0 -20.80469,-0.0508 -40.35157,-8.16406 -55.03907,-22.85547 -30.40234,-30.40234 -30.5039,-79.76953 -0.22656,-110.04687 14.59766,-14.60157 34.0586,-22.63282 54.8125,-22.63282 h 0.19531 c 20.80469,0.0508 40.35157,8.16797 55.04297,22.85547 14.69141,14.69531 22.8086,34.2461 22.85547,55.05469 0.043,20.82422 -7.99219,40.35156 -22.63281,54.99219 C 331.46484,267.46875 312.00781,275.5 291.25391,275.5 Z m -0.65235,-147.53516 c -18.62109,0 -36.0664,7.19922 -49.15625,20.28907 -27.15625,27.15625 -27.05469,71.44921 0.22656,98.73437 13.1836,13.18359 30.72657,20.46484 49.40235,20.51172 18.69531,0.0937 36.20703,-7.16016 49.33203,-20.28906 13.12891,-13.1211 20.33203,-30.63672 20.28906,-49.31641 -0.043,-18.67969 -7.32422,-36.23047 -20.51172,-49.41797 -13.1875,-13.17969 -30.73047,-20.46484 -49.40625,-20.51172 -0.0586,0 -0.11718,0 -0.17578,0 z m 0,0"
         fill="#3762cc"
         id="path967" />
    </g>
  </g>
  <g
     id="layer2">
    <circle
       style="fill:#d7eef4;fill-opacity:1;stroke-width:0.7938"
       id="path1072"
       cx="108.57559"
       cy="42.245232"
       r="12.629297" />
  </g>
  <g
     id="layer3">
    <g
       id="g90"
       transform="matrix(0.05310887,0,0,0.05310887,95.118305,28.243819)">
      <path
         id="SVGCleanerId_0"
         style="fill:#3e77bf"
         d="M 247.992,5.163 C 111.048,5.163 0,116.627 0,254.163 c 0,109.992 71.048,203.32 169.632,236.24 12.392,2.296 16.912,-5.392 16.912,-12 0,-5.904 -0.216,-21.56 -0.336,-42.344 -69,15.064 -83.552,-33.376 -83.552,-33.376 -11.264,-28.768 -27.52,-36.408 -27.52,-36.408 -22.528,-15.456 1.696,-15.16 1.696,-15.16 24.88,1.752 37.976,25.672 37.976,25.672 22.144,38.048 58.064,27.048 72.192,20.672 2.232,-16.08 8.656,-27.064 15.736,-33.28 -55.056,-6.296 -112.944,-27.64 -112.944,-123.04 0,-27.176 9.656,-49.408 25.52,-66.832 -2.568,-6.296 -11.072,-31.6 2.416,-65.872 0,0 20.832,-6.688 68.2,25.52 19.784,-5.52 41,-8.28 62.096,-8.392 21.048,0.112 42.28,2.864 62.096,8.392 47.328,-32.208 68.128,-25.52 68.128,-25.52 13.52,34.272 5.016,59.576 2.456,65.872 15.904,17.424 25.504,39.648 25.504,66.832 0,95.64 -57.984,116.68 -113.232,122.856 8.904,7.688 16.832,22.872 16.832,46.112 0,33.296 -0.296,60.128 -0.296,68.296 0,6.672 4.472,14.424 17.048,11.968 C 425.016,457.387 496,364.123 496,254.163 496,116.627 384.952,5.163 247.992,5.163 Z" />
      <g
         id="g12">
        <path
           id="SVGCleanerId_0_1_"
           style="fill:#3e77bf"
           d="M 247.992,5.163 C 111.048,5.163 0,116.627 0,254.163 c 0,109.992 71.048,203.32 169.632,236.24 12.392,2.296 16.912,-5.392 16.912,-12 0,-5.904 -0.216,-21.56 -0.336,-42.344 -69,15.064 -83.552,-33.376 -83.552,-33.376 -11.264,-28.768 -27.52,-36.408 -27.52,-36.408 -22.528,-15.456 1.696,-15.16 1.696,-15.16 24.88,1.752 37.976,25.672 37.976,25.672 22.144,38.048 58.064,27.048 72.192,20.672 2.232,-16.08 8.656,-27.064 15.736,-33.28 -55.056,-6.296 -112.944,-27.64 -112.944,-123.04 0,-27.176 9.656,-49.408 25.52,-66.832 -2.568,-6.296 -11.072,-31.6 2.416,-65.872 0,0 20.832,-6.688 68.2,25.52 19.784,-5.52 41,-8.28 62.096,-8.392 21.048,0.112 42.28,2.864 62.096,8.392 47.328,-32.208 68.128,-25.52 68.128,-25.52 13.52,34.272 5.016,59.576 2.456,65.872 15.904,17.424 25.504,39.648 25.504,66.832 0,95.64 -57.984,116.68 -113.232,122.856 8.904,7.688 16.832,22.872 16.832,46.112 0,33.296 -0.296,60.128 -0.296,68.296 0,6.672 4.472,14.424 17.048,11.968 C 425.016,457.387 496,364.123 496,254.163 496,116.627 384.952,5.163 247.992,5.163 Z" />
      </g>
      <g
         id="g18">
        <path
           style="fill:#114c82"
           d="m 378.496,109.131 c 13.128,33.904 4.752,58.928 2.2,65.176 15.904,17.424 25.504,39.648 25.504,66.832 0,95.64 -57.984,116.68 -113.232,122.856 8.904,7.688 16.832,22.872 16.832,46.112 0,33.296 -0.296,60.128 -0.296,68.296 0,6.672 4.472,14.424 17.048,11.968 C 425.016,457.387 496,364.123 496,254.163 c 0,-29.56 -5.152,-57.896 -14.568,-84.2 -34.192,-36 -72.248,-59.976 -102.936,-60.832 z"
           id="path14" />
        <path
           style="fill:#114c82"
           d="m 192.976,377.323 c 2.784,-5.616 6.184,-9.984 9.76,-13.144 -30.176,-3.456 -61.168,-11.512 -83.048,-33.744 16.832,28.016 44.24,40.76 73.288,46.888 z"
           id="path16" />
      </g>
      <path
         style="fill:#6ca9ea"
         d="m 12.912,270.947 c 0,-137.536 111.048,-249 247.992,-249 76.04,0 144.056,34.392 189.536,88.488 C 405.52,46.755 331.616,5.163 247.992,5.163 111.048,5.163 0,116.627 0,254.163 0,315.483 22.12,371.587 58.752,414.955 29.944,374.291 12.912,324.643 12.912,270.947 Z"
         id="path20" />
      <path
         style="fill:#083e66"
         d="m 322.712,426.899 c 0,-23.232 -7.928,-38.44 -16.832,-46.128 55.248,-6.16 113.24,-27.216 113.24,-122.848 0,-27.184 -9.6,-49.4 -25.52,-66.824 2.576,-6.296 11.096,-31.608 -2.456,-65.872 0,0 -2.576,-0.792 -7.896,-0.488 5.808,25.84 -0.416,44.32 -2.552,49.568 15.904,17.424 25.504,39.648 25.504,66.832 0,95.64 -57.984,116.68 -113.232,122.856 8.904,7.688 16.832,22.872 16.832,46.112 0,33.296 -0.296,60.128 -0.296,68.296 0,5.872 3.496,12.568 12.92,12.408 0.064,-11.256 0.288,-35.152 0.288,-63.912 z"
         id="path22" />
      <path
         style="fill:#114c82"
         d="m 117.464,423.995 c 5.208,10.72 22.712,36.4 68.888,30.992 -0.064,-5.648 -0.112,-11.976 -0.144,-18.928 -35.624,7.776 -56.656,-1.392 -68.744,-12.064 z"
         id="path24" />
      <path
         style="fill:#6ca9ea"
         d="m 126.368,391.387 c -1.592,-2.4 -4.576,-6.472 -8.904,-10.544 2.808,4.168 5.792,7.664 8.904,10.544 z"
         id="path26" />
      <g
         id="g28" />
      <g
         id="g30" />
      <g
         id="g32" />
      <g
         id="g34" />
      <g
         id="g36" />
      <g
         id="g38" />
      <g
         id="g40" />
      <g
         id="g42" />
      <g
         id="g44" />
      <g
         id="g46" />
      <g
         id="g48" />
      <g
         id="g50" />
      <g
         id="g52" />
      <g
         id="g54" />
      <g
         id="g56" />
    </g>
  </g>
</svg>
